<svg width="501" height="502" viewBox="0 0 501 502" fill="none" xmlns="http://www.w3.org/2000/svg">
<g clip-path="url(#clip0_14_137)">
<path d="M91.9891 446.823L88.9529 434.844C83.5691 432.562 78.0608 430.586 72.4543 428.925L72.071 434.491L70.5168 428.359C63.5641 426.371 58.8335 425.497 58.8335 425.497C58.8335 425.497 65.2224 449.793 78.6252 468.368L94.2404 471.112L82.1092 472.861C83.795 474.889 85.6067 476.81 87.5335 478.611C107.028 496.706 128.742 505.009 136.032 497.153C143.322 489.296 133.429 468.264 113.933 450.169C107.892 444.559 100.298 440.058 92.6981 436.514L91.9891 446.823Z" fill="#F2F2F2"/>
<path d="M120.867 433.814L124.458 421.993C121.028 417.256 117.335 412.717 113.394 408.397L110.19 412.964L112.029 406.911C107.103 401.617 103.506 398.424 103.506 398.424C103.506 398.424 96.4167 422.525 98.2862 445.354L110.235 455.771L98.9445 450.997C99.3396 453.605 99.8983 456.186 100.617 458.725C107.952 484.292 122.249 502.623 132.549 499.668C142.85 496.712 145.254 473.591 137.919 448.023C135.645 440.097 131.472 432.319 126.799 425.358L120.867 433.814Z" fill="#F2F2F2"/>
<path d="M374.815 118.936H372.068V43.6774C372.068 32.1252 367.479 21.0461 359.311 12.8773C351.142 4.70845 340.063 0.118961 328.511 0.118408H169.058C157.505 0.118408 146.426 4.70765 138.257 12.8766C130.088 21.0455 125.499 32.1249 125.499 43.6774V456.559C125.499 462.279 126.625 467.943 128.814 473.228C131.003 478.513 134.212 483.315 138.257 487.36C142.302 491.404 147.103 494.613 152.388 496.802C157.673 498.991 163.337 500.118 169.058 500.118H328.511C340.063 500.118 351.142 495.528 359.311 487.36C367.48 479.191 372.069 468.112 372.069 456.559V172.506H374.817L374.815 118.936Z" fill="#E6E6E6"/>
<path d="M330.267 11.4469H309.455C310.412 13.7936 310.777 16.3397 310.518 18.8609C310.26 21.382 309.385 23.8009 307.971 25.9043C306.557 28.0077 304.648 29.7312 302.411 30.9228C300.174 32.1145 297.679 32.7378 295.144 32.7378H203.797C201.262 32.7379 198.766 32.1146 196.53 30.9229C194.293 29.7312 192.383 28.0077 190.97 25.9041C189.556 23.8006 188.681 21.3816 188.423 18.8603C188.164 16.3391 188.529 13.7929 189.487 11.4462H170.048C161.42 11.4462 153.146 14.8734 147.046 20.9739C140.945 27.0745 137.518 35.3486 137.518 43.976V456.258C137.518 464.885 140.945 473.159 147.046 479.26C153.146 485.361 161.42 488.788 170.048 488.788H330.267C338.894 488.788 347.168 485.361 353.269 479.26C359.369 473.159 362.797 464.885 362.797 456.258V43.9753C362.796 35.3481 359.369 27.0743 353.269 20.9739C347.168 14.8736 338.895 11.4464 330.267 11.4462L330.267 11.4469Z" fill="white"/>
<path d="M229.741 175.678C229.74 172.796 230.499 169.964 231.941 167.469C233.383 164.973 235.457 162.901 237.954 161.461C235.459 160.021 232.628 159.262 229.747 159.262C226.865 159.262 224.034 160.02 221.539 161.461C219.044 162.901 216.971 164.974 215.531 167.469C214.09 169.964 213.331 172.795 213.331 175.676C213.331 178.558 214.09 181.389 215.531 183.884C216.971 186.379 219.044 188.451 221.539 189.892C224.034 191.333 226.865 192.091 229.747 192.091C232.628 192.091 235.459 191.332 237.954 189.891C235.458 188.452 233.385 186.381 231.943 183.886C230.502 181.39 229.743 178.56 229.744 175.678H229.741Z" fill="#CCCCCC"/>
<path d="M250.376 175.678C250.375 172.796 251.134 169.964 252.576 167.469C254.018 164.973 256.092 162.901 258.589 161.461C256.094 160.021 253.263 159.262 250.381 159.262C247.5 159.262 244.669 160.02 242.174 161.461C239.678 162.901 237.606 164.974 236.165 167.469C234.725 169.964 233.966 172.795 233.966 175.676C233.966 178.558 234.725 181.389 236.165 183.884C237.606 186.379 239.678 188.451 242.174 189.892C244.669 191.333 247.5 192.091 250.381 192.091C253.263 192.091 256.094 191.332 258.589 189.891C256.092 188.452 254.019 186.381 252.578 183.886C251.137 181.39 250.378 178.56 250.378 175.678H250.376Z" fill="#CCCCCC"/>
<path d="M270.543 192.093C279.609 192.093 286.958 184.744 286.958 175.678C286.958 166.613 279.609 159.264 270.543 159.264C261.477 159.264 254.128 166.613 254.128 175.678C254.128 184.744 261.477 192.093 270.543 192.093Z" fill="#CC756B"/>
<path d="M297.976 226.948H202.307C201.396 226.947 200.523 226.584 199.879 225.94C199.235 225.296 198.872 224.423 198.871 223.512V127.844C198.873 126.934 199.236 126.061 199.88 125.418C200.524 124.775 201.396 124.413 202.307 124.411H297.976C298.886 124.413 299.759 124.775 300.403 125.419C301.048 126.063 301.41 126.936 301.411 127.847V223.509C301.41 224.42 301.048 225.293 300.403 225.937C299.759 226.581 298.886 226.943 297.976 226.944V226.948ZM202.307 125.784C201.76 125.784 201.236 126.002 200.85 126.388C200.464 126.774 200.246 127.298 200.246 127.845V223.513C200.246 224.059 200.464 224.583 200.85 224.97C201.236 225.356 201.76 225.573 202.307 225.574H297.976C298.522 225.573 299.046 225.356 299.432 224.97C299.819 224.583 300.036 224.059 300.037 223.513V127.845C300.036 127.298 299.819 126.774 299.432 126.388C299.046 126.002 298.522 125.784 297.976 125.784H202.307Z" fill="#CCCCCC"/>
<path d="M319.337 300.281H172.612V301.655H319.337V300.281Z" fill="#CCCCCC"/>
<path d="M177.245 291.7C179.804 291.7 181.878 289.626 181.878 287.067C181.878 284.508 179.804 282.434 177.245 282.434C174.686 282.434 172.612 284.508 172.612 287.067C172.612 289.626 174.686 291.7 177.245 291.7Z" fill="#CC756B"/>
<path d="M319.337 346.615H172.612V347.989H319.337V346.615Z" fill="#CCCCCC"/>
<path d="M177.245 338.035C179.804 338.035 181.878 335.961 181.878 333.402C181.878 330.843 179.804 328.768 177.245 328.768C174.686 328.768 172.612 330.843 172.612 333.402C172.612 335.961 174.686 338.035 177.245 338.035Z" fill="#CC756B"/>
<path d="M316.651 399.378H270.282C269.481 399.377 268.713 399.059 268.147 398.492C267.58 397.926 267.262 397.158 267.261 396.357V380.107C267.262 379.306 267.58 378.539 268.147 377.972C268.713 377.406 269.481 377.087 270.282 377.086H316.651C317.452 377.087 318.22 377.406 318.786 377.972C319.353 378.539 319.671 379.306 319.672 380.107V396.357C319.671 397.158 319.353 397.926 318.786 398.492C318.22 399.059 317.452 399.377 316.651 399.378Z" fill="#CC756B"/>
<path d="M192.36 291.7C194.919 291.7 196.993 289.626 196.993 287.067C196.993 284.508 194.919 282.434 192.36 282.434C189.801 282.434 187.726 284.508 187.726 287.067C187.726 289.626 189.801 291.7 192.36 291.7Z" fill="#CC756B"/>
<path d="M207.474 291.7C210.033 291.7 212.107 289.626 212.107 287.067C212.107 284.508 210.033 282.434 207.474 282.434C204.915 282.434 202.841 284.508 202.841 287.067C202.841 289.626 204.915 291.7 207.474 291.7Z" fill="#CC756B"/>
<path d="M192.36 338.035C194.919 338.035 196.993 335.961 196.993 333.402C196.993 330.843 194.919 328.768 192.36 328.768C189.801 328.768 187.726 330.843 187.726 333.402C187.726 335.961 189.801 338.035 192.36 338.035Z" fill="#CC756B"/>
<path d="M207.474 338.035C210.033 338.035 212.107 335.961 212.107 333.402C212.107 330.843 210.033 328.768 207.474 328.768C204.915 328.768 202.841 330.843 202.841 333.402C202.841 335.961 204.915 338.035 207.474 338.035Z" fill="#CC756B"/>
<path d="M498.578 501.882H2.42223C1.36042 501.882 0.5 501.502 0.5 501.036C0.5 500.569 1.36042 500.189 2.42223 500.189H498.578C499.639 500.189 500.5 500.568 500.5 501.036C500.5 501.503 499.639 501.882 498.578 501.882Z" fill="#E6E6E6"/>
<path d="M435.05 314.633L423.384 337.728L388.507 353.585C384.782 359.88 372.945 360.362 372.084 356.293C371.118 351.727 386.459 344.376 386.459 344.376L415.634 324.643L418.187 307.655L435.05 314.633Z" fill="#FFB9B9"/>
<path d="M433.674 469.617L435.826 486.829L423.347 487.69L422.057 469.618L433.674 469.617Z" fill="#FFB9B9"/>
<path d="M431.954 484.247C433.069 483.067 434.098 481.809 435.033 480.482C436.821 478.007 438.408 490.701 438.408 490.701C438.408 490.701 440.129 495.864 439.699 498.446C439.268 501.028 429.372 501.028 427.651 500.599C425.929 500.17 417.324 500.599 417.324 500.599H404.416C393.229 495.436 404.416 491.993 404.416 491.993C407.858 491.563 419.476 480.806 419.476 480.806L422.058 476.073C423.779 475.643 425.5 482.097 425.5 482.097L431.954 484.247Z" fill="#090814"/>
<path d="M465.946 469.832L468.099 487.043L455.621 487.905L454.33 469.832H465.946Z" fill="#FFB9B9"/>
<path d="M464.224 484.462C465.339 483.283 466.368 482.024 467.303 480.697C469.091 478.222 470.678 490.916 470.678 490.916C470.678 490.916 472.399 495.65 471.969 498.231C471.539 500.812 461.642 500.812 459.921 500.384C458.199 499.955 449.594 500.814 449.594 500.814H436.686C425.499 495.651 436.686 492.209 436.686 492.209C440.128 491.778 451.746 481.021 451.746 481.021L454.328 476.289C456.049 475.858 457.77 482.312 457.77 482.312L464.224 484.462Z" fill="#090814"/>
<path d="M451.745 358.821C453.466 360.974 452.605 368.287 452.605 368.287C452.605 368.287 455.617 391.952 454.326 394.104C453.035 396.255 455.186 397.976 456.479 400.989C457.771 404.001 459.061 411.315 459.061 411.315C466.375 417.339 465.945 444.877 465.945 444.877L468.527 469.402C467.666 471.984 455.618 472.414 453.897 471.984C452.177 471.554 447.013 432.829 447.013 432.829L435.395 410.884C435.395 410.884 436.256 469.402 436.256 471.984C436.256 474.566 424.638 473.275 422.056 473.275C419.474 473.275 419.475 430.247 419.475 430.247L416.893 419.06L403.124 367.857V361.832L405.277 358.82C405.277 358.82 450.024 356.67 451.745 358.821Z" fill="#090814"/>
<path d="M432.814 261.149C440.181 261.149 446.153 255.177 446.153 247.81C446.153 240.443 440.181 234.471 432.814 234.471C425.448 234.471 419.476 240.443 419.476 247.81C419.476 255.177 425.448 261.149 432.814 261.149Z" fill="#FFB9B9"/>
<path d="M426.145 254.048C428.849 260.069 427.248 268.478 421.84 277.713L443.784 267.387L440.342 264.375L441.202 255.77L426.145 254.048Z" fill="#FFB9B9"/>
<path d="M426.144 267.818C423.27 269.526 421.551 272.665 420.564 275.859C418.737 281.773 417.638 287.887 417.289 294.066L416.248 312.566L403.339 361.618C414.526 371.084 420.978 368.933 436.04 361.188C451.102 353.443 452.821 363.771 452.821 363.771C452.821 363.771 454.112 363.341 452.821 362.05C451.53 360.76 452.821 362.05 454.112 360.759C455.403 359.468 454.112 360.759 453.682 359.468C453.251 358.177 453.682 359.038 454.112 358.608C454.543 358.178 452.391 354.302 452.391 354.302L455.834 322.032L460.139 276.423C454.976 269.968 440.348 264.375 440.348 264.375L427.005 273.841C422.699 275.561 426.144 268.677 426.144 268.677L426.144 267.818Z" fill="#CC756B"/>
<path d="M467.235 303.745L468.956 329.562L447.012 360.972C447.012 368.287 443.139 370.009 443.139 370.009C441.673 367.668 440.379 365.223 439.267 362.694C437.114 357.961 440.558 354.088 440.558 354.088L455.618 322.248L449.164 306.328L467.235 303.745Z" fill="#FFB9B9"/>
<path d="M459.924 276.639C467.238 279.22 468.529 307.189 468.529 307.189C459.924 302.455 449.597 310.2 449.597 310.2C449.597 310.2 447.445 302.886 444.864 293.42C444.085 290.757 443.991 287.94 444.593 285.232C445.195 282.524 446.473 280.011 448.306 277.93C448.306 277.93 452.606 274.057 459.924 276.639Z" fill="#CC756B"/>
<path d="M445.076 251.897C443.378 250.539 441.062 253.008 441.062 253.008L439.703 240.782C439.703 240.782 431.213 241.8 425.779 240.442C420.345 239.084 419.496 245.366 419.496 245.366C419.216 242.83 419.159 240.274 419.326 237.727C419.666 234.672 424.081 231.616 431.892 229.577C439.703 227.537 443.778 236.369 443.778 236.369C449.21 239.084 446.774 253.256 445.076 251.897Z" fill="#090814"/>
</g>
<defs>
<clipPath id="clip0_14_137">
<rect width="500" height="501.763" fill="white" transform="translate(0.5 0.118408)"/>
</clipPath>
</defs>
</svg>
