<svg width="230" height="150" viewBox="0 0 230 150" fill="none" xmlns="http://www.w3.org/2000/svg">
<path d="M30.9288 77.6678H23.5681C23.3093 77.6678 23.0611 77.7707 22.8781 77.9537C22.695 78.1367 22.5922 78.3849 22.5922 78.6437V81.8746C22.5922 82.1334 22.695 82.3816 22.8781 82.5646C23.0611 82.7476 23.3093 82.8505 23.5681 82.8505H24.7879V87.6914H29.7091V82.8505H30.9288C31.1877 82.8505 31.4359 82.7476 31.6189 82.5646C31.8019 82.3816 31.9047 82.1334 31.9047 81.8746V78.6437C31.9047 78.3849 31.8019 78.1367 31.6189 77.9537C31.4359 77.7707 31.1877 77.6678 30.9288 77.6678Z" fill="#CC756B"/>
<path d="M38.3014 107.237C33.7934 100.64 31.4889 92.7863 31.7179 84.8C31.722 84.6158 31.6622 84.4357 31.5486 84.2906C31.435 84.1454 31.2747 84.044 31.0949 84.0036V82.6075H23.321V83.9842H23.2139C23.1042 83.9843 22.9958 84.0071 22.8953 84.051C22.7949 84.0949 22.7045 84.1591 22.63 84.2395C22.5554 84.3199 22.4983 84.4148 22.462 84.5183C22.4258 84.6218 22.4113 84.7316 22.4194 84.8409C23.0319 93.3782 20.9638 101.034 16.2152 107.809C15.942 108.198 15.8024 108.666 15.8174 109.141L16.6674 135.435C16.6878 136.022 16.934 136.578 17.3545 136.987C17.775 137.397 18.3373 137.628 18.9242 137.632H36.5076C37.1011 137.627 37.6693 137.391 38.0911 136.973C38.5129 136.556 38.7549 135.99 38.7657 135.397L39.0933 109.867C39.103 108.93 38.8267 108.012 38.3014 107.237Z" fill="#663B35"/>
<path opacity="0.2" d="M29.3943 78.7206C29.3943 79.279 29.1725 79.8145 28.7777 80.2094C28.3828 80.6042 27.8473 80.826 27.2889 80.826C26.7305 80.826 26.195 80.6042 25.8001 80.2094C25.4053 79.8145 25.1835 79.279 25.1835 78.7206" fill="black"/>
<path d="M35.5179 115.971H33.3887C33.1854 114.652 32.5167 113.449 31.5037 112.58C30.4906 111.711 29.2001 111.233 27.8654 111.233C26.5308 111.233 25.2402 111.711 24.2272 112.58C23.2141 113.449 22.5455 114.652 22.3422 115.971H20.2129C19.9863 115.971 19.7624 116.02 19.5566 116.114C19.3508 116.209 19.1678 116.347 19.0203 116.519C18.8728 116.691 18.7642 116.893 18.702 117.11C18.6397 117.328 18.6254 117.557 18.6598 117.781L20.9726 132.814H34.2531L37.0623 117.832C37.1048 117.605 37.0969 117.371 37.0389 117.148C36.981 116.924 36.8745 116.716 36.727 116.538C36.5796 116.361 36.3948 116.218 36.1858 116.12C35.9768 116.022 35.7488 115.971 35.5179 115.971Z" fill="#CC756B"/>
<path d="M214.447 91.8069L213.936 112.22L213.304 137.534H191.774L191.033 107.876L190.631 91.8069H214.447Z" fill="#E6E6E6"/>
<path d="M203.968 80.9467H200.919V121.339H203.968V80.9467Z" fill="#CC756B"/>
<path d="M212.923 107.188L212.346 136.203H192.722L192.046 102.209C193.814 101.713 195.666 101.586 197.485 101.836C199.304 102.086 201.053 102.708 202.621 103.664C205.9 105.603 209.583 106.647 212.923 107.188Z" fill="#663B35"/>
<path d="M197.58 110.455H194.783V113.252H197.58V110.455Z" fill="#E6E6E6"/>
<path d="M199.485 104.739H196.688V107.536H199.485V104.739Z" fill="#E6E6E6"/>
<path d="M205.492 108.696L203.245 107.029L201.579 109.276L203.826 110.943L205.492 108.696Z" fill="#E6E6E6"/>
<path d="M210.546 113.652L208.299 111.986L206.633 114.233L208.88 115.899L210.546 113.652Z" fill="#E6E6E6"/>
<path d="M201.972 116.51L199.725 114.844L198.059 117.091L200.306 118.757L201.972 116.51Z" fill="#E6E6E6"/>
<path d="M208.54 103.62C208.856 103.62 209.112 103.364 209.112 103.048C209.112 102.732 208.856 102.477 208.54 102.477C208.225 102.477 207.969 102.732 207.969 103.048C207.969 103.364 208.225 103.62 208.54 103.62Z" fill="#663B35"/>
<path d="M196.918 99.8092C197.234 99.8092 197.49 99.5533 197.49 99.2376C197.49 98.9219 197.234 98.666 196.918 98.666C196.602 98.666 196.347 98.9219 196.347 99.2376C196.347 99.5533 196.602 99.8092 196.918 99.8092Z" fill="#663B35"/>
<path d="M206.635 95.808C206.951 95.808 207.207 95.5521 207.207 95.2364C207.207 94.9207 206.951 94.6648 206.635 94.6648C206.32 94.6648 206.064 94.9207 206.064 95.2364C206.064 95.5521 206.32 95.808 206.635 95.808Z" fill="#663B35"/>
<path d="M115.132 137.36C149.714 137.36 177.748 109.326 177.748 74.7434C177.748 40.1613 149.714 12.127 115.132 12.127C80.5495 12.127 52.5151 40.1613 52.5151 74.7434C52.5151 109.326 80.5495 137.36 115.132 137.36Z" fill="#CC756B"/>
<path opacity="0.2" d="M115.132 120.447C104.558 120.447 94.3112 116.781 86.1376 110.073C77.964 103.365 72.3692 94.0305 70.3064 83.6599C68.2436 73.2892 69.8405 62.5242 74.825 53.199C79.8094 43.8738 87.8731 36.5654 97.642 32.519C107.411 28.4726 118.281 27.9386 128.399 31.0081C138.518 34.0775 147.259 40.5604 153.133 49.3522C159.008 58.144 161.652 68.7006 160.616 79.2235C159.579 89.7464 154.926 99.5843 147.449 107.061C143.215 111.318 138.179 114.694 132.631 116.991C127.084 119.289 121.136 120.464 115.132 120.447ZM115.132 31.8582C91.4846 31.8582 72.2464 51.0964 72.2464 74.7434C72.2464 98.3904 91.4846 117.629 115.132 117.629C138.779 117.629 158.017 98.3904 158.017 74.7434C158.017 51.0964 138.779 31.8582 115.132 31.8582Z" fill="black"/>
<path d="M115.132 119.038C139.595 119.038 159.426 99.2067 159.426 74.7435C159.426 50.2802 139.595 30.4489 115.132 30.4489C90.6684 30.4489 70.837 50.2802 70.837 74.7435C70.837 99.2067 90.6684 119.038 115.132 119.038Z" fill="#663B35"/>
<path d="M82.1906 57.0318C81.8547 56.3739 81.6518 55.6562 81.5934 54.9198C81.535 54.1834 81.6224 53.4426 81.8504 52.74C82.0785 52.0374 82.4428 51.3866 82.9225 50.8248C83.4023 50.2631 83.988 49.8014 84.6463 49.4661C85.3046 49.1309 86.0225 48.9287 86.759 48.8711C87.4955 48.8135 88.2361 48.9016 88.9385 49.1304C89.6409 49.3593 90.2913 49.7243 90.8526 50.2046C91.4138 50.6849 91.8749 51.2712 92.2094 51.9298L104.724 76.5042C105.06 77.1621 105.263 77.8798 105.321 78.6162C105.379 79.3526 105.292 80.0933 105.064 80.796C104.836 81.4986 104.472 82.1494 103.992 82.7112C103.512 83.2729 102.926 83.7346 102.268 84.0698C101.61 84.405 100.892 84.6072 100.155 84.6648C99.4189 84.7225 98.6783 84.6343 97.9759 84.4055C97.2735 84.1767 96.6231 83.8117 96.0619 83.3314C95.5006 82.851 95.0395 82.2648 94.705 81.6062L82.1906 57.0318Z" fill="#FF6584"/>
<path opacity="0.2" d="M83.5865 59.7728L83.0089 58.6386C85.8915 56.3989 89.2764 54.7517 93.0277 53.5366L93.6053 54.6708C89.5452 55.5163 86.091 57.0809 83.5865 59.7728Z" fill="black"/>
<path opacity="0.2" d="M86.2819 65.0658L85.7043 63.9316C88.5868 61.6919 91.9717 60.0447 95.7231 58.8296L96.3007 59.9638C92.2406 60.8093 88.7864 62.3739 86.2819 65.0658Z" fill="black"/>
<path opacity="0.2" d="M88.9773 70.3587L88.3997 69.2245C91.2823 66.9847 94.6672 65.3375 98.4185 64.1224L98.9961 65.2566C94.936 66.1021 91.4818 67.6668 88.9773 70.3587Z" fill="black"/>
<path opacity="0.2" d="M91.6727 75.6516L91.0951 74.5174C93.9776 72.2777 97.3626 70.6305 101.114 69.4154L101.691 70.5496C97.6314 71.3951 94.1772 72.9597 91.6727 75.6516Z" fill="black"/>
<path opacity="0.2" d="M94.3681 80.9446L93.7905 79.8104C96.6731 77.5706 100.058 75.9234 103.809 74.7084L104.387 75.8426C100.327 76.688 96.8726 78.2527 94.3681 80.9446Z" fill="black"/>
<path d="M72.802 66.2316C72.4662 65.5737 72.2633 64.856 72.205 64.1197C72.1467 63.3833 72.2341 62.6426 72.4621 61.94C72.6902 61.2375 73.0545 60.5867 73.5343 60.025C74.014 59.4633 74.5997 59.0017 75.258 58.6665C75.9162 58.3313 76.6341 58.1291 77.3705 58.0714C78.1069 58.0138 78.8475 58.1019 79.5498 58.3307C80.2522 58.5594 80.9026 58.9244 81.4639 59.4046C82.0251 59.8849 82.4862 60.471 82.8208 61.1296L95.3351 85.7039C96.0098 87.0323 96.1296 88.5742 95.6682 89.9908C95.2067 91.4075 94.2017 92.583 92.8741 93.2591C91.5464 93.9352 90.0047 94.0566 88.5875 93.5966C87.1704 93.1366 85.9939 92.1329 85.3164 90.806L72.802 66.2316Z" fill="#FF6584"/>
<path opacity="0.2" d="M74.1978 68.9725L73.6202 67.8383C76.5028 65.5986 79.8877 63.9514 83.639 62.7363L84.2166 63.8705C80.1565 64.716 76.7023 66.2807 74.1978 68.9725Z" fill="black"/>
<path opacity="0.2" d="M76.8933 74.2655L76.3157 73.1313C79.1982 70.8916 82.5831 69.2444 86.3344 68.0293L86.912 69.1635C82.852 70.009 79.3978 71.5736 76.8933 74.2655Z" fill="black"/>
<path opacity="0.2" d="M79.5886 79.5585L79.011 78.4243C81.8936 76.1845 85.2785 74.5373 89.0298 73.3223L89.6074 74.4565C85.5473 75.3019 82.0932 76.8666 79.5886 79.5585Z" fill="black"/>
<path opacity="0.2" d="M82.2841 84.8513L81.7065 83.7171C84.589 81.4774 87.974 79.8302 91.7253 78.6151L92.3028 79.7493C88.2428 80.5948 84.7886 82.1595 82.2841 84.8513Z" fill="black"/>
<path opacity="0.2" d="M84.9794 90.1443L84.4019 89.0101C87.2844 86.7703 90.6693 85.1231 94.4206 83.9081L94.9982 85.0423C90.9381 85.8878 87.484 87.4524 84.9794 90.1443Z" fill="black"/>
<path d="M144.728 76.1528L144.768 76.1529C146.116 76.1642 147.436 75.769 148.556 75.0188C149.676 74.2686 150.544 73.1983 151.046 71.9475C152.08 69.335 152.601 66.548 152.58 63.7385C152.51 51.8472 142.836 42.0918 130.945 41.9273C125.882 41.8564 120.949 43.5388 116.984 46.6892C113.019 49.8397 110.265 54.2643 109.189 59.2132C108.114 64.162 108.783 69.3305 111.083 73.8425C113.383 78.3545 117.172 81.9324 121.808 83.9697C123.034 84.5122 124.394 84.6718 125.712 84.4274C127.029 84.1831 128.242 83.5464 129.192 82.6006C131.228 80.5538 133.649 78.9302 136.315 77.8236C138.982 76.717 141.841 76.1491 144.728 76.1528Z" fill="#E6E6E6"/>
<path d="M133.453 69.5086C137.457 69.5086 140.702 66.2635 140.702 62.2604C140.702 58.2573 137.457 55.0122 133.453 55.0122C129.45 55.0122 126.205 58.2573 126.205 62.2604C126.205 66.2635 129.45 69.5086 133.453 69.5086Z" fill="#F9A825"/>
<path d="M117.7 61.4453C118.172 61.4453 118.554 61.063 118.554 60.5914C118.554 60.1198 118.172 59.7375 117.7 59.7375C117.229 59.7375 116.847 60.1198 116.847 60.5914C116.847 61.063 117.229 61.4453 117.7 61.4453Z" fill="#663B35"/>
<path d="M89.513 62.2507C89.9846 62.2507 90.3669 61.8684 90.3669 61.3968C90.3669 60.9253 89.9846 60.543 89.513 60.543C89.0414 60.543 88.6591 60.9253 88.6591 61.3968C88.6591 61.8684 89.0414 62.2507 89.513 62.2507Z" fill="#663B35"/>
<path d="M122.251 52.5962C122.723 52.5962 123.105 52.2139 123.105 51.7423C123.105 51.2707 122.723 50.8884 122.251 50.8884C121.78 50.8884 121.397 51.2707 121.397 51.7423C121.397 52.2139 121.78 52.5962 122.251 52.5962Z" fill="#663B35"/>
<path d="M122.227 77.208C122.699 77.208 123.081 76.8257 123.081 76.3541C123.081 75.8825 122.699 75.5002 122.227 75.5002C121.755 75.5002 121.373 75.8825 121.373 76.3541C121.373 76.8257 121.755 77.208 122.227 77.208Z" fill="#663B35"/>
<path d="M139.139 50.8326C139.611 50.8326 139.993 50.4503 139.993 49.9788C139.993 49.5072 139.611 49.1249 139.139 49.1249C138.668 49.1249 138.286 49.5072 138.286 49.9788C138.286 50.4503 138.668 50.8326 139.139 50.8326Z" fill="#663B35"/>
<path d="M83.9725 74.188C84.4441 74.188 84.8264 73.8057 84.8264 73.3341C84.8264 72.8625 84.4441 72.4802 83.9725 72.4802C83.5009 72.4802 83.1187 72.8625 83.1187 73.3341C83.1187 73.8057 83.5009 74.188 83.9725 74.188Z" fill="#663B35"/>
<path d="M90.214 86.4696C90.6856 86.4696 91.0679 86.0873 91.0679 85.6157C91.0679 85.1441 90.6856 84.7618 90.214 84.7618C89.7425 84.7618 89.3602 85.1441 89.3602 85.6157C89.3602 86.0873 89.7425 86.4696 90.214 86.4696Z" fill="#663B35"/>
<path d="M129.427 90.4479C131.206 90.4479 132.648 89.0056 132.648 87.2264C132.648 85.4473 131.206 84.005 129.427 84.005C127.648 84.005 126.205 85.4473 126.205 87.2264C126.205 89.0056 127.648 90.4479 129.427 90.4479Z" fill="#FF6584"/>
<path opacity="0.2" d="M131.843 87.4277C131.843 88.0685 131.588 88.6831 131.135 89.1362C130.682 89.5893 130.067 89.8438 129.427 89.8438C128.786 89.8438 128.171 89.5893 127.718 89.1362C127.265 88.6831 127.011 88.0685 127.011 87.4277" fill="black"/>
<path opacity="0.2" d="M127.011 87.0251C127.011 86.3843 127.265 85.7698 127.718 85.3167C128.171 84.8636 128.786 84.609 129.427 84.609C130.067 84.609 130.682 84.8636 131.135 85.3167C131.588 85.7698 131.843 86.3843 131.843 87.0251" fill="black"/>
<path d="M128.219 86.421C128.33 86.421 128.42 86.2858 128.42 86.119C128.42 85.9522 128.33 85.817 128.219 85.817C128.107 85.817 128.017 85.9522 128.017 86.119C128.017 86.2858 128.107 86.421 128.219 86.421Z" fill="#FF6584"/>
<path d="M129.427 86.0184C129.538 86.0184 129.628 85.8832 129.628 85.7164C129.628 85.5496 129.538 85.4144 129.427 85.4144C129.315 85.4144 129.225 85.5496 129.225 85.7164C129.225 85.8832 129.315 86.0184 129.427 86.0184Z" fill="#FF6584"/>
<path d="M129.427 88.6358C129.538 88.6358 129.628 88.5006 129.628 88.3338C129.628 88.167 129.538 88.0317 129.427 88.0317C129.315 88.0317 129.225 88.167 129.225 88.3338C129.225 88.5006 129.315 88.6358 129.427 88.6358Z" fill="#FF6584"/>
<path d="M130.635 87.0252C130.746 87.0252 130.836 86.8899 130.836 86.7232C130.836 86.5564 130.746 86.4211 130.635 86.4211C130.523 86.4211 130.433 86.5564 130.433 86.7232C130.433 86.8899 130.523 87.0252 130.635 87.0252Z" fill="#FF6584"/>
<path d="M130.433 89.2399C130.545 89.2399 130.635 89.1047 130.635 88.9379C130.635 88.7711 130.545 88.6359 130.433 88.6359C130.322 88.6359 130.232 88.7711 130.232 88.9379C130.232 89.1047 130.322 89.2399 130.433 89.2399Z" fill="#FF6584"/>
<path d="M128.017 88.2332C128.129 88.2332 128.219 88.098 128.219 87.9312C128.219 87.7644 128.129 87.6292 128.017 87.6292C127.906 87.6292 127.816 87.7644 127.816 87.9312C127.816 88.098 127.906 88.2332 128.017 88.2332Z" fill="#FF6584"/>
<path d="M135.869 81.7903C137.649 81.7903 139.091 80.348 139.091 78.5688C139.091 76.7897 137.649 75.3474 135.869 75.3474C134.09 75.3474 132.648 76.7897 132.648 78.5688C132.648 80.348 134.09 81.7903 135.869 81.7903Z" fill="#FF6584"/>
<path opacity="0.2" d="M138.286 78.7703C138.286 79.411 138.031 80.0256 137.578 80.4787C137.125 80.9318 136.51 81.1863 135.87 81.1863C135.229 81.1863 134.614 80.9318 134.161 80.4787C133.708 80.0256 133.453 79.411 133.453 78.7703" fill="black"/>
<path opacity="0.2" d="M133.453 78.3675C133.453 77.7267 133.708 77.1122 134.161 76.6591C134.614 76.206 135.229 75.9514 135.87 75.9514C136.51 75.9514 137.125 76.206 137.578 76.6591C138.031 77.1122 138.286 77.7267 138.286 78.3675" fill="black"/>
<path d="M134.661 77.7634C134.773 77.7634 134.863 77.6282 134.863 77.4614C134.863 77.2946 134.773 77.1594 134.661 77.1594C134.55 77.1594 134.46 77.2946 134.46 77.4614C134.46 77.6282 134.55 77.7634 134.661 77.7634Z" fill="#FF6584"/>
<path d="M135.87 77.3609C135.981 77.3609 136.071 77.2256 136.071 77.0588C136.071 76.892 135.981 76.7568 135.87 76.7568C135.758 76.7568 135.668 76.892 135.668 77.0588C135.668 77.2256 135.758 77.3609 135.87 77.3609Z" fill="#FF6584"/>
<path d="M135.87 79.9783C135.981 79.9783 136.071 79.8431 136.071 79.6763C136.071 79.5095 135.981 79.3743 135.87 79.3743C135.758 79.3743 135.668 79.5095 135.668 79.6763C135.668 79.8431 135.758 79.9783 135.87 79.9783Z" fill="#FF6584"/>
<path d="M137.078 78.3676C137.189 78.3676 137.279 78.2324 137.279 78.0656C137.279 77.8988 137.189 77.7635 137.078 77.7635C136.966 77.7635 136.876 77.8988 136.876 78.0656C136.876 78.2324 136.966 78.3676 137.078 78.3676Z" fill="#FF6584"/>
<path d="M136.876 80.5823C136.987 80.5823 137.078 80.4471 137.078 80.2803C137.078 80.1135 136.987 79.9783 136.876 79.9783C136.765 79.9783 136.675 80.1135 136.675 80.2803C136.675 80.4471 136.765 80.5823 136.876 80.5823Z" fill="#FF6584"/>
<path d="M134.46 79.5756C134.571 79.5756 134.661 79.4404 134.661 79.2736C134.661 79.1068 134.571 78.9716 134.46 78.9716C134.349 78.9716 134.259 79.1068 134.259 79.2736C134.259 79.4404 134.349 79.5756 134.46 79.5756Z" fill="#FF6584"/>
<path d="M142.312 86.2197C144.092 86.2197 145.534 84.7774 145.534 82.9983C145.534 81.2191 144.092 79.7769 142.312 79.7769C140.533 79.7769 139.091 81.2191 139.091 82.9983C139.091 84.7774 140.533 86.2197 142.312 86.2197Z" fill="#CC756B"/>
<path opacity="0.2" d="M144.728 83.1997C144.728 83.8405 144.474 84.455 144.021 84.9081C143.568 85.3612 142.953 85.6158 142.312 85.6158C141.672 85.6158 141.057 85.3612 140.604 84.9081C140.151 84.455 139.896 83.8405 139.896 83.1997" fill="black"/>
<path opacity="0.2" d="M139.896 82.7969C139.896 82.1562 140.151 81.5416 140.604 81.0885C141.057 80.6354 141.672 80.3809 142.312 80.3809C142.953 80.3809 143.568 80.6354 144.021 81.0885C144.474 81.5416 144.728 82.1562 144.728 82.7969" fill="black"/>
<path d="M141.104 82.193C141.216 82.193 141.306 82.0578 141.306 81.891C141.306 81.7242 141.216 81.589 141.104 81.589C140.993 81.589 140.903 81.7242 140.903 81.891C140.903 82.0578 140.993 82.193 141.104 82.193Z" fill="#CC756B"/>
<path d="M142.312 81.7903C142.424 81.7903 142.514 81.6551 142.514 81.4883C142.514 81.3215 142.424 81.1863 142.312 81.1863C142.201 81.1863 142.111 81.3215 142.111 81.4883C142.111 81.6551 142.201 81.7903 142.312 81.7903Z" fill="#CC756B"/>
<path d="M142.312 84.4077C142.424 84.4077 142.514 84.2725 142.514 84.1057C142.514 83.9389 142.424 83.8037 142.312 83.8037C142.201 83.8037 142.111 83.9389 142.111 84.1057C142.111 84.2725 142.201 84.4077 142.312 84.4077Z" fill="#CC756B"/>
<path d="M143.52 82.797C143.632 82.797 143.722 82.6618 143.722 82.495C143.722 82.3282 143.632 82.193 143.52 82.193C143.409 82.193 143.319 82.3282 143.319 82.495C143.319 82.6618 143.409 82.797 143.52 82.797Z" fill="#CC756B"/>
<path d="M143.319 85.0117C143.43 85.0117 143.52 84.8765 143.52 84.7097C143.52 84.5429 143.43 84.4077 143.319 84.4077C143.208 84.4077 143.118 84.5429 143.118 84.7097C143.118 84.8765 143.208 85.0117 143.319 85.0117Z" fill="#CC756B"/>
<path d="M140.903 84.005C141.014 84.005 141.104 83.8698 141.104 83.703C141.104 83.5362 141.014 83.401 140.903 83.401C140.792 83.401 140.702 83.5362 140.702 83.703C140.702 83.8698 140.792 84.005 140.903 84.005Z" fill="#CC756B"/>
<path d="M126.205 86.6224C127.984 86.6224 129.427 85.1801 129.427 83.401C129.427 81.6218 127.984 80.1796 126.205 80.1796C124.426 80.1796 122.984 81.6218 122.984 83.401C122.984 85.1801 124.426 86.6224 126.205 86.6224Z" fill="#CC756B"/>
<path opacity="0.2" d="M128.621 83.6023C128.621 84.2431 128.367 84.8576 127.914 85.3107C127.461 85.7638 126.846 86.0184 126.205 86.0184C125.564 86.0184 124.95 85.7638 124.497 85.3107C124.044 84.8576 123.789 84.2431 123.789 83.6023" fill="black"/>
<path opacity="0.2" d="M123.789 83.1996C123.789 82.5589 124.044 81.9443 124.497 81.4912C124.95 81.0381 125.564 80.7836 126.205 80.7836C126.846 80.7836 127.461 81.0381 127.914 81.4912C128.367 81.9443 128.621 82.5589 128.621 83.1996" fill="black"/>
<path d="M124.997 82.5956C125.108 82.5956 125.199 82.4604 125.199 82.2936C125.199 82.1268 125.108 81.9916 124.997 81.9916C124.886 81.9916 124.796 82.1268 124.796 82.2936C124.796 82.4604 124.886 82.5956 124.997 82.5956Z" fill="#CC756B"/>
<path d="M126.205 82.193C126.316 82.193 126.407 82.0578 126.407 81.891C126.407 81.7242 126.316 81.589 126.205 81.589C126.094 81.589 126.004 81.7242 126.004 81.891C126.004 82.0578 126.094 82.193 126.205 82.193Z" fill="#CC756B"/>
<path d="M126.205 84.8103C126.316 84.8103 126.407 84.6751 126.407 84.5083C126.407 84.3415 126.316 84.2063 126.205 84.2063C126.094 84.2063 126.004 84.3415 126.004 84.5083C126.004 84.6751 126.094 84.8103 126.205 84.8103Z" fill="#CC756B"/>
<path d="M127.413 83.1997C127.525 83.1997 127.615 83.0645 127.615 82.8977C127.615 82.7309 127.525 82.5957 127.413 82.5957C127.302 82.5957 127.212 82.7309 127.212 82.8977C127.212 83.0645 127.302 83.1997 127.413 83.1997Z" fill="#CC756B"/>
<path d="M127.212 85.4144C127.323 85.4144 127.413 85.2792 127.413 85.1124C127.413 84.9456 127.323 84.8104 127.212 84.8104C127.101 84.8104 127.011 84.9456 127.011 85.1124C127.011 85.2792 127.101 85.4144 127.212 85.4144Z" fill="#CC756B"/>
<path d="M124.796 84.4077C124.907 84.4077 124.997 84.2725 124.997 84.1057C124.997 83.9389 124.907 83.8037 124.796 83.8037C124.685 83.8037 124.595 83.9389 124.595 84.1057C124.595 84.2725 124.685 84.4077 124.796 84.4077Z" fill="#CC756B"/>
<path d="M133.453 88.0318C135.233 88.0318 136.675 86.5896 136.675 84.8104C136.675 83.0313 135.233 81.589 133.453 81.589C131.674 81.589 130.232 83.0313 130.232 84.8104C130.232 86.5896 131.674 88.0318 133.453 88.0318Z" fill="#CC756B"/>
<path opacity="0.2" d="M135.869 85.0117C135.869 85.329 135.807 85.6432 135.686 85.9363C135.564 86.2294 135.386 86.4958 135.162 86.7201C134.937 86.9445 134.671 87.1225 134.378 87.2439C134.085 87.3653 133.771 87.4278 133.453 87.4278C133.136 87.4278 132.822 87.3653 132.529 87.2439C132.236 87.1225 131.969 86.9445 131.745 86.7201C131.521 86.4958 131.343 86.2294 131.221 85.9363C131.1 85.6432 131.037 85.329 131.037 85.0117" fill="black"/>
<path opacity="0.2" d="M131.037 84.6091C131.037 84.2918 131.1 83.9776 131.221 83.6845C131.343 83.3913 131.521 83.125 131.745 82.9006C131.969 82.6763 132.236 82.4983 132.529 82.3769C132.822 82.2555 133.136 82.193 133.453 82.193C133.771 82.193 134.085 82.2555 134.378 82.3769C134.671 82.4983 134.937 82.6763 135.162 82.9006C135.386 83.125 135.564 83.3913 135.686 83.6845C135.807 83.9776 135.869 84.2918 135.869 84.6091" fill="black"/>
<path d="M132.245 84.005C132.357 84.005 132.447 83.8698 132.447 83.703C132.447 83.5362 132.357 83.401 132.245 83.401C132.134 83.401 132.044 83.5362 132.044 83.703C132.044 83.8698 132.134 84.005 132.245 84.005Z" fill="#CC756B"/>
<path d="M133.453 83.6023C133.565 83.6023 133.655 83.4671 133.655 83.3003C133.655 83.1335 133.565 82.9983 133.453 82.9983C133.342 82.9983 133.252 83.1335 133.252 83.3003C133.252 83.4671 133.342 83.6023 133.453 83.6023Z" fill="#CC756B"/>
<path d="M133.453 86.2197C133.565 86.2197 133.655 86.0845 133.655 85.9177C133.655 85.7509 133.565 85.6157 133.453 85.6157C133.342 85.6157 133.252 85.7509 133.252 85.9177C133.252 86.0845 133.342 86.2197 133.453 86.2197Z" fill="#CC756B"/>
<path d="M134.661 84.609C134.773 84.609 134.863 84.4738 134.863 84.307C134.863 84.1402 134.773 84.005 134.661 84.005C134.55 84.005 134.46 84.1402 134.46 84.307C134.46 84.4738 134.55 84.609 134.661 84.609Z" fill="#CC756B"/>
<path d="M134.46 86.8238C134.571 86.8238 134.661 86.6885 134.661 86.5217C134.661 86.3549 134.571 86.2197 134.46 86.2197C134.349 86.2197 134.259 86.3549 134.259 86.5217C134.259 86.6885 134.349 86.8238 134.46 86.8238Z" fill="#CC756B"/>
<path d="M132.044 85.817C132.155 85.817 132.245 85.6818 132.245 85.515C132.245 85.3482 132.155 85.213 132.044 85.213C131.933 85.213 131.843 85.3482 131.843 85.515C131.843 85.6818 131.933 85.817 132.044 85.817Z" fill="#CC756B"/>
<path d="M138.487 91.4546C140.266 91.4546 141.708 90.0123 141.708 88.2331C141.708 86.454 140.266 85.0117 138.487 85.0117C136.708 85.0117 135.266 86.454 135.266 88.2331C135.266 90.0123 136.708 91.4546 138.487 91.4546Z" fill="#FF6584"/>
<path opacity="0.2" d="M140.903 88.4344C140.903 89.0752 140.648 89.6898 140.195 90.1429C139.742 90.596 139.128 90.8505 138.487 90.8505C137.846 90.8505 137.232 90.596 136.779 90.1429C136.325 89.6898 136.071 89.0752 136.071 88.4344" fill="black"/>
<path opacity="0.2" d="M136.071 88.0318C136.071 87.391 136.325 86.7765 136.779 86.3234C137.232 85.8703 137.846 85.6157 138.487 85.6157C139.128 85.6157 139.742 85.8703 140.195 86.3234C140.648 86.7765 140.903 87.391 140.903 88.0318" fill="black"/>
<path d="M137.279 87.4278C137.39 87.4278 137.48 87.2925 137.48 87.1257C137.48 86.9589 137.39 86.8237 137.279 86.8237C137.168 86.8237 137.078 86.9589 137.078 87.1257C137.078 87.2925 137.168 87.4278 137.279 87.4278Z" fill="#FF6584"/>
<path d="M138.487 87.0252C138.598 87.0252 138.688 86.8899 138.688 86.7232C138.688 86.5564 138.598 86.4211 138.487 86.4211C138.376 86.4211 138.286 86.5564 138.286 86.7232C138.286 86.8899 138.376 87.0252 138.487 87.0252Z" fill="#FF6584"/>
<path d="M138.487 89.6425C138.598 89.6425 138.688 89.5073 138.688 89.3405C138.688 89.1737 138.598 89.0385 138.487 89.0385C138.376 89.0385 138.286 89.1737 138.286 89.3405C138.286 89.5073 138.376 89.6425 138.487 89.6425Z" fill="#FF6584"/>
<path d="M139.695 88.0318C139.806 88.0318 139.896 87.8965 139.896 87.7297C139.896 87.5629 139.806 87.4277 139.695 87.4277C139.584 87.4277 139.494 87.5629 139.494 87.7297C139.494 87.8965 139.584 88.0318 139.695 88.0318Z" fill="#FF6584"/>
<path d="M139.494 90.2465C139.605 90.2465 139.695 90.1113 139.695 89.9445C139.695 89.7777 139.605 89.6425 139.494 89.6425C139.382 89.6425 139.292 89.7777 139.292 89.9445C139.292 90.1113 139.382 90.2465 139.494 90.2465Z" fill="#FF6584"/>
<path d="M137.078 89.2399C137.189 89.2399 137.279 89.1047 137.279 88.9379C137.279 88.7711 137.189 88.6359 137.078 88.6359C136.966 88.6359 136.876 88.7711 136.876 88.9379C136.876 89.1047 136.966 89.2399 137.078 89.2399Z" fill="#FF6584"/>
<path d="M97.0596 76.8053C97.5311 76.8053 97.9134 76.423 97.9134 75.9514C97.9134 75.4798 97.5311 75.0975 97.0596 75.0975C96.588 75.0975 96.2057 75.4798 96.2057 75.9514C96.2057 76.423 96.588 76.8053 97.0596 76.8053Z" fill="#663B35"/>
<path d="M120.27 106.945L99.7625 101.258L100.548 98.34L121.055 104.027L120.27 106.945Z" fill="#F9A825"/>
<path d="M117.263 105.97C110.241 107.314 103.027 107.314 96.0044 105.97V102.945C103.043 104.111 110.225 104.111 117.263 102.945V105.97Z" fill="#F9A825"/>
<path d="M119.449 96.8954C112.426 98.2397 105.212 98.2397 98.1899 96.8954V93.8706C105.228 95.0371 112.41 95.0371 119.449 93.8706V96.8954Z" fill="#F9A825"/>
<path d="M126.8 100.525C119.777 101.87 112.564 101.87 105.541 100.525V97.5004C112.579 98.6669 119.762 98.6669 126.8 97.5004V100.525Z" fill="#F9A825"/>
<path d="M128.588 103.953C121.566 105.298 114.352 105.298 107.329 103.953V100.928C114.368 102.095 121.55 102.095 128.588 100.928V103.953Z" fill="#F9A825"/>
<path d="M134.822 108.433L113.848 111.956L113.362 108.971L134.336 105.448L134.822 108.433Z" fill="#F9A825"/>
<path d="M131.689 108.82C125.874 113.012 119.321 116.069 112.372 117.83L111.128 115.081C118.016 113.153 124.541 110.109 130.445 106.072L131.689 108.82Z" fill="#F9A825"/>
<path d="M129.942 99.6489C124.127 103.84 117.573 106.897 110.625 108.658L109.381 105.91C116.268 103.981 122.793 100.938 128.697 96.9004L129.942 99.6489Z" fill="#F9A825"/>
<path d="M138.115 99.8316C132.3 104.023 125.746 107.08 118.798 108.841L117.554 106.093C124.441 104.164 130.966 101.121 136.87 97.0831L138.115 99.8316Z" fill="#F9A825"/>
<path d="M141.15 102.189C135.335 106.38 128.781 109.437 121.833 111.198L120.589 108.45C127.476 106.521 134.001 103.478 139.906 99.4403L141.15 102.189Z" fill="#F9A825"/>
<path d="M115.736 96.2867H114.729V97.2934H115.736V96.2867Z" fill="#00BF71"/>
<path d="M118.756 113.803H117.749V114.81H118.756V113.803Z" fill="#00BF71"/>
<path d="M102.649 96.2867H101.642V97.2934H102.649V96.2867Z" fill="#00BF71"/>
<path d="M126.004 108.77H124.997V109.776H126.004V108.77Z" fill="#00BF71"/>
<path d="M126.608 102.931H125.601V103.938H126.608V102.931Z" fill="#00BF71"/>
<path d="M110.001 100.175L108.835 99.3833L108.383 100.05L109.549 100.841L110.001 100.175Z" fill="#00BF71"/>
<path d="M121.88 102.389L120.714 101.598L120.262 102.264L121.428 103.056L121.88 102.389Z" fill="#00BF71"/>
<path d="M107.384 106.215L106.218 105.423L105.765 106.09L106.932 106.881L107.384 106.215Z" fill="#00BF71"/>
<path d="M114.767 106.156L115.558 104.99L114.892 104.538L114.101 105.704L114.767 106.156Z" fill="#00BF71"/>
<path d="M120.203 107.566L120.995 106.399L120.328 105.947L119.537 107.113L120.203 107.566Z" fill="#00BF71"/>
<path d="M134.701 102.733L135.492 101.567L134.826 101.115L134.035 102.281L134.701 102.733Z" fill="#00BF71"/>
</svg>
