<svg width="25" height="25" viewBox="0 0 25 25" fill="none" xmlns="http://www.w3.org/2000/svg">
<g clip-path="url(#clip0_9_69)">
<path d="M24.2141 12.7245C24.2141 11.7413 24.1343 11.0238 23.9616 10.2797H12.7336V14.7176H19.3242C19.1914 15.8205 18.4739 17.4815 16.8793 18.5976L16.857 18.7462L20.407 21.4964L20.653 21.5209C22.9118 19.4347 24.2141 16.3653 24.2141 12.7245Z" fill="#4285F4"/>
<path d="M12.7336 24.4176C15.9624 24.4176 18.6731 23.3545 20.653 21.5209L16.8793 18.5976C15.8695 19.3018 14.5141 19.7934 12.7336 19.7934C9.57121 19.7934 6.88715 17.7074 5.93035 14.824L5.79011 14.8359L2.09869 17.6927L2.05042 17.8269C4.01695 21.7334 8.05637 24.4176 12.7336 24.4176Z" fill="#34A853"/>
<path d="M5.93029 14.8239C5.67783 14.0798 5.53173 13.2825 5.53173 12.4587C5.53173 11.6349 5.67783 10.8376 5.91701 10.0935L5.91032 9.93507L2.17264 7.03235L2.05035 7.09052C1.23985 8.71162 0.77478 10.532 0.77478 12.4587C0.77478 14.3854 1.23985 16.2058 2.05035 17.8269L5.93029 14.8239Z" fill="#FBBC05"/>
<path d="M12.7336 5.12403C14.9792 5.12403 16.4939 6.09402 17.3577 6.90461L20.7327 3.60928C18.6599 1.6826 15.9624 0.5 12.7336 0.5C8.05637 0.5 4.01695 3.18406 2.05042 7.09056L5.91707 10.0936C6.88715 7.2102 9.57121 5.12403 12.7336 5.12403Z" fill="#EB4335"/>
</g>
<defs>
<clipPath id="clip0_9_69">
<rect width="24" height="24" fill="white" transform="translate(0.5 0.5)"/>
</clipPath>
</defs>
</svg>
