<svg width="127" height="39" viewBox="0 0 127 39" fill="none" xmlns="http://www.w3.org/2000/svg">
<path d="M5.95996 37.9385C5.55306 38.3291 5.17057 38.5977 4.8125 38.7441C4.4707 38.9069 4.09635 38.9883 3.68945 38.9883C3.29883 38.9883 2.92448 38.915 2.56641 38.7686C2.22461 38.6221 1.9235 38.4186 1.66309 38.1582C1.09342 37.5885 0.808594 36.9131 0.808594 36.1318V14.916C0.808594 14.1185 1.02018 13.5 1.44336 13.0605C2.12695 12.3444 2.77799 11.9863 3.39648 11.9863C4.03125 11.9863 4.49512 12.0596 4.78809 12.2061C5.09733 12.3363 5.35775 12.4909 5.56934 12.6699C5.87858 12.9303 6.09017 13.1989 6.2041 13.4756C6.33431 13.736 6.44824 13.9313 6.5459 14.0615C6.64355 14.1917 6.79004 14.2568 6.98535 14.2568C7.19694 14.2568 7.36784 14.1917 7.49805 14.0615C7.62826 13.915 7.83984 13.6953 8.13281 13.4023C9.10938 12.4583 10.1755 11.9863 11.3311 11.9863C12.5029 11.9863 13.4795 12.1816 14.2607 12.5723C15.042 12.9466 15.7174 13.4674 16.2871 14.1348C17.5404 15.5508 18.167 17.2435 18.167 19.2129V36.1318C18.167 37.3688 17.5892 38.2396 16.4336 38.7441C16.0755 38.9069 15.693 38.9883 15.2861 38.9883C14.8955 38.9883 14.5212 38.915 14.1631 38.7686C13.805 38.6221 13.4958 38.4186 13.2354 38.1582C12.6657 37.5885 12.3809 36.9131 12.3809 36.1318V19.2861C12.3809 18.4886 12.1855 17.8783 11.7949 17.4551C11.0951 16.7389 10.3464 16.3809 9.54883 16.3809C8.24674 16.3809 7.34342 16.8854 6.83887 17.8945C6.67611 18.2201 6.59473 18.5863 6.59473 18.9932V36.1318C6.59473 36.9294 6.38314 37.5316 5.95996 37.9385ZM37.9912 13.0605C38.4144 12.6536 38.7969 12.377 39.1387 12.2305C39.4967 12.0677 39.8711 11.9863 40.2617 11.9863C40.6686 11.9863 41.043 12.0596 41.3848 12.2061C41.7428 12.3525 42.0521 12.556 42.3125 12.8164C42.8822 13.3861 43.167 14.0615 43.167 14.8428V36.0586C43.167 36.8561 42.9635 37.4746 42.5566 37.9141C41.8568 38.6302 41.1895 38.9883 40.5547 38.9883C39.9362 38.9883 39.4723 38.915 39.1631 38.7686C38.8538 38.6383 38.6016 38.4837 38.4062 38.3047C38.097 38.0443 37.8773 37.7839 37.7471 37.5234C37.6331 37.2467 37.5273 37.0433 37.4297 36.9131C37.332 36.7829 37.1774 36.7178 36.9658 36.7178C36.7705 36.7178 36.6077 36.791 36.4775 36.9375C36.3473 37.0677 36.1357 37.2793 35.8428 37.5723C34.8662 38.5163 33.792 38.9883 32.6201 38.9883C31.4645 38.9883 30.4961 38.8011 29.7148 38.4268C28.9336 38.0361 28.25 37.5072 27.6641 36.8398C26.4271 35.4238 25.8086 33.7311 25.8086 31.7617V14.8428C25.8086 13.6058 26.3945 12.735 27.5664 12.2305C27.9082 12.0677 28.2744 11.9863 28.665 11.9863C29.0719 11.9863 29.4544 12.0596 29.8125 12.2061C30.1706 12.3525 30.4798 12.556 30.7402 12.8164C31.3099 13.3861 31.5947 14.0615 31.5947 14.8428V31.6885C31.5947 32.5023 31.7982 33.1126 32.2051 33.5195C32.9212 34.2357 33.6699 34.5938 34.4512 34.5938C35.737 34.5938 36.6322 34.0892 37.1367 33.0801C37.2995 32.7546 37.3809 32.3883 37.3809 31.9814V14.8428C37.3809 14.0452 37.5843 13.4512 37.9912 13.0605ZM63.3818 34.0811C64.0003 34.0811 64.513 34.3008 64.9199 34.7402C65.3268 35.1797 65.5303 35.7087 65.5303 36.3271C65.5303 36.9294 65.3268 37.4421 64.9199 37.8652C64.513 38.2884 64.0003 38.5 63.3818 38.5H60.4521C58.4665 38.5 56.7656 37.792 55.3496 36.376C53.9499 34.9762 53.25 33.2754 53.25 31.2734V16.7715H50.3691C49.4414 16.7715 48.7822 16.332 48.3916 15.4531C48.2777 15.1927 48.2207 14.916 48.2207 14.623C48.2207 13.6953 48.6602 13.0361 49.5391 12.6455C49.7995 12.5316 50.0762 12.4746 50.3691 12.4746H53.25V7.39648C53.25 6.11068 53.8359 5.21549 55.0078 4.71094C55.3496 4.54818 55.724 4.4668 56.1309 4.4668C56.9284 4.4668 57.5306 4.67839 57.9375 5.10156C58.6536 5.80143 59.0117 6.56641 59.0117 7.39648V12.4746H63.4307C64.0003 12.4746 64.4398 12.6292 64.749 12.9385C65.2699 13.4593 65.5303 14.0208 65.5303 14.623C65.5303 15.209 65.3268 15.7135 64.9199 16.1367C64.513 16.5599 64.0166 16.7715 63.4307 16.7715H59.0117V31.2246C59.0117 32.0384 59.2233 32.6406 59.6465 33.0312C60.3626 33.7311 61.1113 34.0811 61.8926 34.0811H63.3818ZM82.8887 11.9863C83.2956 11.9863 83.6943 12.0433 84.085 12.1572C84.4756 12.2712 84.8418 12.4502 85.1836 12.6943C85.9648 13.264 86.3555 14.0534 86.3555 15.0625C86.3555 15.8763 86.1439 16.4867 85.7207 16.8936C84.9883 17.5934 84.3047 17.9434 83.6699 17.9434C82.8561 17.9434 82.1156 17.6829 81.4482 17.1621C80.9274 16.8203 80.3415 16.6494 79.6904 16.6494C79.0394 16.6494 78.5267 16.861 78.1523 17.2842C77.778 17.6911 77.5908 18.2119 77.5908 18.8467V36.1074C77.5908 36.8887 77.3874 37.4909 76.9805 37.9141C76.248 38.6302 75.5807 38.9883 74.9785 38.9883C74.3926 38.9883 73.9206 38.9069 73.5625 38.7441C73.2207 38.5977 72.9196 38.3942 72.6592 38.1338C72.0895 37.5641 71.8047 36.8887 71.8047 36.1074V14.916C71.8047 14.1185 72.0163 13.5 72.4395 13.0605C73.123 12.3444 73.7741 11.9863 74.3926 11.9863C75.0273 11.9863 75.4993 12.0596 75.8086 12.2061C76.1178 12.3363 76.3783 12.4909 76.5898 12.6699C76.8828 12.9303 77.0944 13.1989 77.2246 13.4756C77.3548 13.736 77.4606 13.9313 77.542 14.0615C77.6396 14.1917 77.7861 14.2568 77.9814 14.2568C78.193 14.2568 78.3639 14.1917 78.4941 14.0615L78.9336 13.6465C80.2031 12.5397 81.5215 11.9863 82.8887 11.9863ZM93.8994 14.916C93.8994 14.1185 94.1029 13.5 94.5098 13.0605C95.2096 12.3444 95.9827 11.9863 96.8291 11.9863C97.6429 11.9863 98.2451 12.1979 98.6357 12.6211C99.3519 13.3535 99.71 14.1185 99.71 14.916V36.1318C99.71 36.9131 99.5065 37.5072 99.0996 37.9141C98.3835 38.6302 97.7243 38.9883 97.1221 38.9883C96.5199 38.9883 96.0397 38.9069 95.6816 38.7441C95.3236 38.5977 95.0143 38.4023 94.7539 38.1582C94.1842 37.6048 93.8994 36.9294 93.8994 36.1318V14.916ZM96.8291 0.951172C97.7243 0.951172 98.4974 1.27669 99.1484 1.92773C99.7995 2.57878 100.125 3.23796 100.125 3.90527C100.125 4.57259 100.035 5.10156 99.8564 5.49219C99.6774 5.88281 99.4414 6.22461 99.1484 6.51758C98.4974 7.16862 97.7243 7.49414 96.8291 7.49414C95.9339 7.49414 95.1608 7.16862 94.5098 6.51758C93.8587 5.86654 93.5332 5.21549 93.5332 4.56445C93.5332 3.45768 93.8587 2.57878 94.5098 1.92773C95.1608 1.27669 95.9339 0.951172 96.8291 0.951172ZM121.097 13.0605C121.52 12.6536 121.902 12.377 122.244 12.2305C122.602 12.0677 122.977 11.9863 123.367 11.9863C123.774 11.9863 124.148 12.0596 124.49 12.2061C124.848 12.3525 125.158 12.556 125.418 12.8164C125.988 13.3861 126.272 14.0615 126.272 14.8428V36.0586C126.272 36.8561 126.069 37.4746 125.662 37.9141C124.962 38.6302 124.295 38.9883 123.66 38.9883C123.042 38.9883 122.578 38.915 122.269 38.7686C121.959 38.6383 121.707 38.4837 121.512 38.3047C121.202 38.0443 120.983 37.7839 120.853 37.5234C120.739 37.2467 120.633 37.0433 120.535 36.9131C120.438 36.7829 120.283 36.7178 120.071 36.7178C119.876 36.7178 119.713 36.791 119.583 36.9375C119.453 37.0677 119.241 37.2793 118.948 37.5723C117.972 38.5163 116.897 38.9883 115.726 38.9883C114.57 38.9883 113.602 38.8011 112.82 38.4268C112.039 38.0361 111.355 37.5072 110.77 36.8398C109.533 35.4238 108.914 33.7311 108.914 31.7617V14.8428C108.914 13.6058 109.5 12.735 110.672 12.2305C111.014 12.0677 111.38 11.9863 111.771 11.9863C112.177 11.9863 112.56 12.0596 112.918 12.2061C113.276 12.3525 113.585 12.556 113.846 12.8164C114.415 13.3861 114.7 14.0615 114.7 14.8428V31.6885C114.7 32.5023 114.904 33.1126 115.311 33.5195C116.027 34.2357 116.775 34.5938 117.557 34.5938C118.842 34.5938 119.738 34.0892 120.242 33.0801C120.405 32.7546 120.486 32.3883 120.486 31.9814V14.8428C120.486 14.0452 120.69 13.4512 121.097 13.0605Z" fill="#91C789"/>
</svg>
